<svg width="36" height="36" xmlns="http://www.w3.org/2000/svg" viewBox="0 0 44.85 32"><defs><style>.cls-1{fill:#FFF;fill-rule:evenodd;}</style></defs><title>资源 2</title><g id="图层_2" data-name="图层 2"><g id="图层_1-2" data-name="图层 1"><path class="cls-1" d="M31.8,31.19A22.36,22.36,0,0,0,32.19,28a23.82,23.82,0,0,0-.55-6.52.19.19,0,0,0,0-.08C22.9,23,15.09,21.1,8.31,15.35A27.07,27.07,0,0,1,0,2.42l.85-.27c.13.38.25.75.39,1.13A22.08,22.08,0,0,0,8,12.86a23.27,23.27,0,0,0,5.42,3.39,26.79,26.79,0,0,0,16.88,1.8l.22-.05.1,0-.08-.12A27,27,0,0,0,22.88,7.09a24.57,24.57,0,0,0-5.31-3.51A22.43,22.43,0,0,0,3.81,1.46c-1,.16-2,.41-2.95.62L.6,1.26a27.2,27.2,0,0,1,19.77,1.3A26.74,26.74,0,0,1,34,16.93a23.75,23.75,0,0,0,8.23-5.3c.87.81,1.74,1.61,2.62,2.44a26.66,26.66,0,0,1-9.77,6.31A26.8,26.8,0,0,1,35.3,32L35,31.94,32,31.23h-.09Z"/><path class="cls-1" d="M12.42,14.67c-.58-.36-1.1-.68-1.62-1a1.42,1.42,0,0,1-.31-.29.65.65,0,0,1-.07-.85c.24-.37.51-.71.79-1.06a10.31,10.31,0,0,0,1.41-2.37A9.84,9.84,0,0,0,13.42,5c0-.36-.05-.71-.08-1.07,0-.11,0-.21,0-.32,0-.29.12-.43.4-.38a4.61,4.61,0,0,1,1,.26,11.43,11.43,0,0,1,1.28.59A2.38,2.38,0,0,1,17.21,5.5a10.45,10.45,0,0,1,.46,4.84,9.62,9.62,0,0,1-1.19,3.46,4.34,4.34,0,0,1-.67.92,1.84,1.84,0,0,1-2.07.49C13.27,15.06,12.82,14.84,12.42,14.67Z"/><path class="cls-1" d="M19.1,5.57A17.83,17.83,0,0,1,22,7.7a4.63,4.63,0,0,1,1.28,2.58,10,10,0,0,1-.17,4.58,10.7,10.7,0,0,1-.58,1.55,1.54,1.54,0,0,1-1.69,1c-.72-.08-1.43-.23-2.14-.37-.43-.09-.85-.22-1.27-.34a2,2,0,0,1-.44-.22.63.63,0,0,1-.14-.88c.13-.25.28-.48.42-.72A9.89,9.89,0,0,0,18.57,7.4c-.09-.42-.22-.84-.33-1.27a1.46,1.46,0,0,1,0-.42c0-.27.14-.37.4-.31A3.46,3.46,0,0,1,19.1,5.57Z"/><path class="cls-1" d="M29.19,17.26c-.73.1-1.44.21-2.15.27s-1.71.1-2.57.13a2.69,2.69,0,0,1-.79-.11.41.41,0,0,1-.29-.58c.13-.41.3-.82.43-1.24a9.76,9.76,0,0,0,.3-4.68,6.65,6.65,0,0,1-.09-.78c0-.3.17-.39.42-.2a3.12,3.12,0,0,1,.53.5,25.75,25.75,0,0,1,4.16,6.54A1.26,1.26,0,0,0,29.19,17.26Z"/><path class="cls-1" d="M11.61,8.81a10.61,10.61,0,0,1-1.85,2.51,1.71,1.71,0,0,1-.26.21,1.08,1.08,0,0,1-1.49,0,7.09,7.09,0,0,1-.78-.77c-.23-.26-.2-.46,0-.71.4-.4.83-.77,1.2-1.2a9.7,9.7,0,0,0,2.47-5.71C11,3.06,11,3,11,3c0-.26.17-.37.43-.36a1.61,1.61,0,0,1,.93.27.9.9,0,0,1,.38.72,9.53,9.53,0,0,1,0,1.07,9.48,9.48,0,0,1-.66,3.15C11.9,8.19,11.72,8.56,11.61,8.81Z"/><path class="cls-1" d="M6,5.1a1.48,1.48,0,1,1,2-.62A1.48,1.48,0,0,1,6,5.1Z"/></g></g></svg>