<svg width="136" height="28" xmlns="http://www.w3.org/2000/svg" viewBox="0 0 181.32 24"><defs><style>.cls-1{fill:#FFFFFF;}</style></defs><title>24</title><g id="图层_2" data-name="图层 2"><g id="图层_1-2" data-name="图层 1"><path class="cls-1" d="M.88,18.83V15.47H9.49a6.34,6.34,0,0,0,2.74-.39,2,2,0,0,0,1-1.78,2.12,2.12,0,0,0-1.15-2A4.55,4.55,0,0,0,10,10.93H6.47A7.3,7.3,0,0,1,1.86,9.77,5.08,5.08,0,0,1,.49,7.93,5.68,5.68,0,0,1,0,5.56,6.12,6.12,0,0,1,1.16,2,4.84,4.84,0,0,1,4.77.08C5.34,0,6.17,0,7.28,0h9.35V3.36H8.19a15.55,15.55,0,0,0-2.51.17A1.71,1.71,0,0,0,4.4,5.45,1.77,1.77,0,0,0,5.48,7.26a6,6,0,0,0,2.37.34h3A11.38,11.38,0,0,1,14.32,8a4.39,4.39,0,0,1,2.76,2.37,7.14,7.14,0,0,1,.59,2.91,6,6,0,0,1-.79,3.08,4.53,4.53,0,0,1-3.3,2.31,21.67,21.67,0,0,1-3.25.17Z"/><path class="cls-1" d="M30,10.48a2.58,2.58,0,0,0-.57-2A3.69,3.69,0,0,0,27.1,8H20.72V5.08H27.1c1.15,0,1.94,0,2.38.07a8.15,8.15,0,0,1,1.32.27q3.14,1.19,3,5.68v7.73h-8a24.28,24.28,0,0,1-3-.12,3.77,3.77,0,0,1-1.44-.53,3.84,3.84,0,0,1-1.66-3.41,4.66,4.66,0,0,1,.66-2.47,3.39,3.39,0,0,1,1.76-1.49,10.89,10.89,0,0,1,3.19-.33Zm0,2.93H25a1.46,1.46,0,0,0-1,.34,1.17,1.17,0,0,0-.38.93,1,1,0,0,0,.46.93,3.23,3.23,0,0,0,1.6.29H30Z"/><path class="cls-1" d="M49.24,5.08V8H42.55a6,6,0,0,0-1.47.11,1,1,0,0,0-.65,1.1,1.27,1.27,0,0,0,.62,1.13,4.32,4.32,0,0,0,1.84.23h2.23a5.68,5.68,0,0,1,3.39.9,3.49,3.49,0,0,1,1.38,3A4.7,4.7,0,0,1,49,17.22a2.88,2.88,0,0,1-1.51,1.3,9.89,9.89,0,0,1-3,.31H36.73V15.9h6.75c.83,0,1.39,0,1.69,0a1,1,0,0,0,1-1.16,1.16,1.16,0,0,0-.68-1.16,4.71,4.71,0,0,0-1.63-.17H41.59a9.26,9.26,0,0,1-2.08-.17,3.71,3.71,0,0,1-1.34-.62A3.55,3.55,0,0,1,37,11.11a4.76,4.76,0,0,1-.43-2A4,4,0,0,1,38,5.82a5.07,5.07,0,0,1,3.14-.74Z"/><path class="cls-1" d="M56.55,0V5.08h3.87a10.58,10.58,0,0,1,2.7.27,3.59,3.59,0,0,1,1.65,1c.87.79,1.3,2.11,1.3,4v8.55H62.28V11a9.53,9.53,0,0,0-.09-1.57,1.8,1.8,0,0,0-.41-.8A3,3,0,0,0,59.63,8H56.55V18.83H52.77V0Z"/><path class="cls-1" d="M69.6,3.67V0h3.78V3.67Zm0,1.41h3.78V18.83H69.6Z"/><path class="cls-1" d="M77.11,5.08H91a11.55,11.55,0,0,1,2.88.28,3.64,3.64,0,0,1,1.66,1,5.32,5.32,0,0,1,1.25,3.73v8.75H93V10.67a7.33,7.33,0,0,0-.08-1.38,1.45,1.45,0,0,0-.4-.71A2.49,2.49,0,0,0,90.75,8h-2V18.83H85V8H80.89V18.83H77.11Z"/><path class="cls-1" d="M100.32,3.67V0h3.78V3.67Zm0,1.41h3.78V18.83h-3.78Z"/><path class="cls-1" d="M107.83,18.83V15.47h8.61a6.31,6.31,0,0,0,2.74-.39,2,2,0,0,0,1-1.78,2.13,2.13,0,0,0-1.16-2,4.55,4.55,0,0,0-2.09-.36h-3.5a7.27,7.27,0,0,1-4.6-1.16,4.86,4.86,0,0,1-1.37-1.84,5.69,5.69,0,0,1-.5-2.37A6.12,6.12,0,0,1,108.11,2,4.84,4.84,0,0,1,111.72.08c.57,0,1.41-.08,2.52-.08h9.34V3.36h-8.44a15.55,15.55,0,0,0-2.51.17c-.85.21-1.27.85-1.27,1.92a1.76,1.76,0,0,0,1.07,1.81,6,6,0,0,0,2.37.34h3a11.38,11.38,0,0,1,3.45.39A4.37,4.37,0,0,1,124,10.36a7.15,7.15,0,0,1,.6,2.91,6.08,6.08,0,0,1-.79,3.08,4.57,4.57,0,0,1-3.31,2.31,21.61,21.61,0,0,1-3.24.17Z"/><path class="cls-1" d="M135.33,15.9V5.08h3.78V15.9h4.07V5.08h3.75V18.83H133a11.09,11.09,0,0,1-2.88-.28,3.53,3.53,0,0,1-1.64-1,5.28,5.28,0,0,1-1.24-3.72V5.08H131v8.16a7.29,7.29,0,0,0,.09,1.39,1.68,1.68,0,0,0,.39.7,2.45,2.45,0,0,0,1.77.57Z"/><path class="cls-1" d="M160.15,10.48a2.58,2.58,0,0,0-.58-2,3.68,3.68,0,0,0-2.3-.51h-6.39V5.08h6.39c1.14,0,1.93,0,2.37.07a8.15,8.15,0,0,1,1.32.27q3.14,1.19,3,5.68v7.73h-8a24.28,24.28,0,0,1-3-.12,3.77,3.77,0,0,1-1.44-.53,3.84,3.84,0,0,1-1.66-3.41,4.66,4.66,0,0,1,.66-2.47,3.39,3.39,0,0,1,1.76-1.49,10.89,10.89,0,0,1,3.19-.33Zm0,2.93h-5a1.46,1.46,0,0,0-1,.34,1.17,1.17,0,0,0-.38.93,1,1,0,0,0,.46.93,3.23,3.23,0,0,0,1.6.29h4.35Z"/><path class="cls-1" d="M167.46,5.08h6.6a13.22,13.22,0,0,1,2.91.24,5,5,0,0,1,1.89.95q2.46,1.92,2.46,5.9a6.69,6.69,0,0,1-1.81,4.88,5.41,5.41,0,0,1-2.07,1.36,8.57,8.57,0,0,1-2.87.42h-3.33V24h-3.78ZM171.24,8V15.9h2.32a3.88,3.88,0,0,0,2.68-.79,4.08,4.08,0,0,0,1.18-3.22A4.06,4.06,0,0,0,176.49,9a3.46,3.46,0,0,0-2.68-1Z"/></g></g></svg>